<?xml version="1.0" encoding="UTF-8" standalone="no"?>
<!DOCTYPE svg PUBLIC "-//W3C//DTD SVG 1.1//EN" "http://www.w3.org/Graphics/SVG/1.1/DTD/svg11.dtd">
<!-- Created with Vectornator (http://vectornator.io/) -->
<svg height="100%" stroke-miterlimit="10" style="fill-rule:nonzero;clip-rule:evenodd;stroke-linecap:round;stroke-linejoin:round;" version="1.1" viewBox="0 0 7680 4320" width="100%" xml:space="preserve" xmlns="http://www.w3.org/2000/svg" xmlns:vectornator="http://vectornator.io" xmlns:xlink="http://www.w3.org/1999/xlink">
<defs/>
<g id="Layer-1" vectornator:layerName="Layer 1">
<g opacity="1">
<g opacity="1">
<path d="M3721.31 2742.1C3533.11 2556.27 3533.11 2556.27 3344.91 2370.44C3182.77 2497.64 3019.71 2610.31 2808.87 2645.91C1839.66 2809.56 1212.33 1686.33 1883.49 961.782C1970.55 867.79 2107.7 760.821 2232 714.235C2454.08 631.002 2903.23 523.318 3351.3 943.319C3538.97 751.313 3538.97 751.313 3726.64 559.306C3592.18 421.185 3400.36 293.615 3248.86 216.708C2955.65 67.8699 2567.85 67.7226 2254.06 134.261C1920.13 205.067 1635.9 385.85 1417.44 645.71C838.766 1334.04 971.156 2289.46 1621.98 2875.52C2146.43 3347.8 2947.87 3291.03 3514.26 2932.93C3579.19 2891.88 3650.39 2824.03 3721.31 2742.1Z" fill="#000000" fill-rule="nonzero" opacity="1" stroke="none"/>
<path d="M2873.38 1597.82C3241.79 1966.85 3241.79 1966.85 3610.19 2335.88C3788.08 2152.99 3788.08 2152.99 3965.96 1970.11C3600.2 1600.2 2852.47 840.426 2852.47 840.426L2344.58 833.426L2363.95 2473.4L2872.87 2480.44L2873.38 1597.82Z" fill="#25acdc" fill-rule="nonzero" opacity="1" stroke="none"/>
<path d="M2875.26 4206.96L2886.48 3227.06C2712.31 3259.74 2533.57 3265.15 2359.42 3240.77L2344.58 4198.09L2875.26 4206.96Z" fill="#25acdc" fill-rule="nonzero" opacity="1" stroke="none"/>
</g>
<path d="M3854.4 1563.45C4042.6 1749.28 4042.6 1749.28 4230.8 1935.1C4392.94 1807.9 4555.99 1695.24 4766.84 1659.63C5736.05 1495.98 6363.38 2619.21 5692.22 3343.77C5605.16 3437.76 5468.01 3544.73 5343.71 3591.31C5121.62 3674.55 4672.48 3782.23 4224.41 3362.23C4036.74 3554.23 4036.74 3554.23 3849.07 3746.24C3983.52 3884.36 4175.35 4011.93 4326.85 4088.84C4620.06 4237.68 5007.86 4237.82 5321.65 4171.29C5655.58 4100.48 5939.81 3919.7 6158.27 3659.84C6736.94 2971.5 6604.55 2016.09 5953.73 1430.02C5429.27 957.746 4627.83 1014.52 4061.45 1372.61C3996.52 1413.67 3925.32 1481.52 3854.4 1563.45Z" fill="#25acdc" fill-rule="nonzero" opacity="1" stroke="none"/>
<path d="M4702.33 2707.73C4333.92 2338.7 4333.92 2338.7 3965.52 1969.67C3787.63 2152.55 3787.63 2152.55 3609.75 2335.44C3975.51 2705.35 4723.24 3465.12 4723.24 3465.12L5231.13 3472.12L5211.76 1832.15L4702.83 1825.11L4702.33 2707.73Z" fill="#000000" fill-rule="nonzero" opacity="1" stroke="none"/>
<path d="M4700.45 98.5863L4689.23 1078.49C4863.4 1045.8 5042.14 1040.39 5216.29 1064.78L5231.13 107.457L4700.45 98.5863Z" fill="#000000" fill-rule="nonzero" opacity="1" stroke="none"/>
</g>
</g>
</svg>
