<svg  height="24" viewBox="0 0 24 24" width="24" xmlns="http://www.w3.org/2000/svg"><g ><path d="m16 1c1.6569 0 3 1.34315 3 3 0 .55228-.4477 1-1 1s-1-.44772-1-1-.4477-1-1-1h-12c-.55228 0-1 .44772-1 1v16c0 .5523.44772 1 1 1h12c.5523 0 1-.4477 1-1v-1c0-.5523.4477-1 1-1s1 .4477 1 1v1c0 1.6569-1.3431 3-3 3h-12c-1.65685 0-3-1.3431-3-3v-16c0-1.65685 1.34315-3 3-3z"/><path clip-rule="evenodd" d="m20.7991 8.20087c-.2998-.29983-.7859-.29983-1.0858 0l-7.7967 7.79683c-.1474.1473-.2451.3371-.2793.5427l-.1645.9868.9868-.1645c.2056-.0342.3954-.1319.5427-.2792l7.7968-7.79684c.2999-.29984.2999-.78596 0-1.08579zm-2.5-1.41421c1.0809-1.08088 2.8334-1.08089 3.9143-.00001 1.0808 1.08089 1.0808 2.83334 0 3.91425l-7.7968 7.7968c-.4422.4421-1.0114.735-1.6282.8378l-.9868.1645c-1.3536.2256-2.5272-.9479-2.30159-2.3016l.16447-.9868c.1028-.6168.39572-1.186.83782-1.6282z" fill-rule="evenodd"/><path d="m5 7c0-.55228.44772-1 1-1h8c.5523 0 1 .44772 1 1s-.4477 1-1 1h-8c-.55228 0-1-.44772-1-1z"/><path d="m5 11c0-.5523.44772-1 1-1h4c.5523 0 1 .4477 1 1s-.4477 1-1 1h-4c-.55228 0-1-.4477-1-1z"/><path d="m5 15c0-.5523.44772-1 1-1h1c.55228 0 1 .4477 1 1s-.44772 1-1 1h-1c-.55228 0-1-.4477-1-1z"/></g></svg>