<?xml version="1.0" encoding="UTF-8" standalone="no"?>
<!-- Created with Inkscape (http://www.inkscape.org/) -->

<svg
   xmlns:dc="http://purl.org/dc/elements/1.1/"
   xmlns:cc="http://creativecommons.org/ns#"
   xmlns:rdf="http://www.w3.org/1999/02/22-rdf-syntax-ns#"
   xmlns:svg="http://www.w3.org/2000/svg"
   xmlns="http://www.w3.org/2000/svg"
   xmlns:sodipodi="http://sodipodi.sourceforge.net/DTD/sodipodi-0.dtd"
   xmlns:inkscape="http://www.inkscape.org/namespaces/inkscape"
   width="288.245mm"
   height="285.18323mm"
   viewBox="0 0 288.245 285.18323"
   version="1.1"
   id="svg850"
   inkscape:version="0.92.4 (5da689c313, 2019-01-14)"
   sodipodi:docname="SAC Logo.svg"
   inkscape:export-filename="D:\IISER\SAC\SAC Logo.png"
   inkscape:export-xdpi="96"
   inkscape:export-ydpi="96">
  <defs
     id="defs844" />
  <sodipodi:namedview
     id="base"
     pagecolor="#ffffff"
     bordercolor="#666666"
     borderopacity="1.0"
     inkscape:pageopacity="0.0"
     inkscape:pageshadow="2"
     inkscape:zoom="0.7"
     inkscape:cx="661.69514"
     inkscape:cy="117.04029"
     inkscape:document-units="mm"
     inkscape:current-layer="flowRoot867"
     showgrid="false"
     fit-margin-top="10"
     fit-margin-left="10"
     fit-margin-right="10"
     fit-margin-bottom="10"
     inkscape:window-width="1920"
     inkscape:window-height="986"
     inkscape:window-x="-11"
     inkscape:window-y="-11"
     inkscape:window-maximized="1" />
  <metadata
     id="metadata847">
    <rdf:RDF>
      <cc:Work
         rdf:about="">
        <dc:format>image/svg+xml</dc:format>
        <dc:type
           rdf:resource="http://purl.org/dc/dcmitype/StillImage" />
        <dc:title></dc:title>
      </cc:Work>
    </rdf:RDF>
  </metadata>
  <g
     inkscape:label="Layer 1"
     inkscape:groupmode="layer"
     id="layer1"
     transform="translate(171.23519,-12.125569)">
    <path
       style="fill:#000000;stroke-width:1.19219995"
       d="M -97.080163,223.96873 -161.23519,159.85449 V 146.4273 133.0001 h 20.55948 20.55949 l 43.658597,43.64664 c 34.35601,34.3466 44.137399,43.49463 45.905659,42.93322 1.23588,-0.39239 11.09914,-9.5859 21.9183596,-20.43002 15.73729,-15.77352 19.3136604,-19.94511 17.883,-20.85926 -1.03861,-0.66364 -17.03624,-1.15032 -38.1605596,-1.16093 l -36.372269,-0.0182 -26.20807,-26.2284 -26.208067,-26.2284 h -6.86531 c -3.77593,0 -6.86532,-0.40474 -6.86532,-0.89941 0,-1.1689 100.471236,-101.629771 101.640246,-101.629771 0.48892,0 0.88895,0.679427 0.88895,1.509836 0,2.075251 96.80087,98.614355 98.98642,98.718745 1.12574,0.0538 0.9,0.45097 -0.62993,1.1084 -1.31142,0.56354 -16.60857,1.06232 -33.99367,1.1084 l -31.6092604,0.0838 -16.6588596,-16.6908 c -9.16237,-9.179938 -17.18263,-16.690786 -17.82281,-16.690786 -1.097216,0 -41.293449,38.920286 -42.171499,40.832836 -0.22576,0.49178 40.139205,0.89415 89.699959,0.89415 h 90.110444 v 9.24347 9.24347 l -67.657354,67.49827 c -37.2115304,37.12406 -68.69689,67.85815 -69.96745,68.29798 -1.885232,0.65262 -14.109669,-10.99235 -66.465149,-63.31456 z m -64.155027,-49.89338 c 0,-3.01194 0.0235,-3.01908 2.94303,-0.89415 3.76815,2.74253 3.77947,3.9303 0.0375,3.9303 -2.39897,0 -2.9805,-0.5924 -2.9805,-3.03615 z m 255.130776,2.10127 c 0,-0.51418 2.9507,-3.84892 6.557104,-7.41052 l 6.5571,-6.47565 v 7.41052 7.41053 h -6.5571 c -3.606404,0 -6.557104,-0.42069 -6.557104,-0.93488 z"
       id="path863"
       inkscape:connector-curvature="0"
       sodipodi:nodetypes="ccccccscscccccssssccscsscscccscccccsccsscccss" />
    <g
       aria-label="STUDENTS  ACTIVITY COUNCIL"
       transform="matrix(0.26458333,0,0,0.26458333,-2.6458363,-3.0238096)"
       style="font-style:normal;font-weight:normal;font-size:40px;line-height:1.25;font-family:sans-serif;letter-spacing:0px;word-spacing:0px;fill:#000000;fill-opacity:1;stroke:none"
       id="flowRoot867">
      <path
         d="m -232.26172,564.23366 7.875,-0.76563 q 0.71094,3.96484 2.8711,5.82422 2.1875,1.85937 5.8789,1.85937 3.91016,0 5.87891,-1.64062 1.99609,-1.66797 1.99609,-3.88281 0,-1.42188 -0.84765,-2.40625 -0.82032,-1.01172 -2.89844,-1.75 -1.42188,-0.49219 -6.48047,-1.75 -6.50781,-1.61328 -9.13281,-3.96485 -3.69141,-3.30859 -3.69141,-8.0664 0,-3.0625 1.72266,-5.71485 1.75,-2.67968 5.0039,-4.07422 3.28125,-1.39453 7.90235,-1.39453 7.54687,0 11.34765,3.3086 3.82813,3.30859 4.01953,8.83203 l -8.09375,0.35547 q -0.51953,-3.08985 -2.24218,-4.42969 -1.69532,-1.36719 -5.11328,-1.36719 -3.52735,0 -5.52344,1.44922 -1.28516,0.92969 -1.28516,2.48828 0,1.42188 1.20313,2.4336 1.53125,1.28515 7.4375,2.67968 5.90625,1.39453 8.72265,2.89844 2.84375,1.47656 4.42969,4.07422 1.61328,2.57031 1.61328,6.37109 0,3.44532 -1.91406,6.45313 -1.91406,3.00781 -5.41406,4.48437 -3.5,1.44922 -8.72266,1.44922 -7.60156,0 -11.67578,-3.5 -4.07422,-3.52734 -4.86719,-10.2539 z"
         style="font-style:normal;font-variant:normal;font-weight:bold;font-stretch:normal;font-size:56px;line-height:1.20000005;font-family:arial;-inkscape-font-specification:'arial Bold';letter-spacing:1.5px;fill:#ffffff;fill-opacity:1;stroke:none;stroke-opacity:1"
         id="path818" />
      <path
         d="m -182.28125,577.27662 v -33.30468 h -11.89453 v -6.78125 h 31.85547 v 6.78125 h -11.86719 v 33.30468 z"
         style="font-style:normal;font-variant:normal;font-weight:bold;font-stretch:normal;font-size:56px;line-height:1.20000005;font-family:arial;-inkscape-font-specification:'arial Bold';letter-spacing:1.5px;fill:#ffffff;fill-opacity:1;stroke:none;stroke-opacity:1"
         id="path820" />
      <path
         d="m -155.625,537.19069 h 8.09375 v 21.71093 q 0,5.16797 0.30078,6.69922 0.51953,2.46094 2.46094,3.96485 1.96875,1.47656 5.35937,1.47656 3.44532,0 5.19532,-1.39453 1.75,-1.42188 2.10547,-3.47266 0.35546,-2.05078 0.35546,-6.80859 v -22.17578 h 8.09375 v 21.05468 q 0,7.21875 -0.65625,10.19922 -0.65625,2.98047 -2.43359,5.03125 -1.75,2.05078 -4.70312,3.28125 -2.95313,1.20313 -7.71094,1.20313 -5.74219,0 -8.72266,-1.3125 -2.95312,-1.33985 -4.67578,-3.44531 -1.72266,-2.13282 -2.26953,-4.45704 -0.79297,-3.44531 -0.79297,-10.17187 z"
         style="font-style:normal;font-variant:normal;font-weight:bold;font-stretch:normal;font-size:56px;line-height:1.20000005;font-family:arial;-inkscape-font-specification:'arial Bold';letter-spacing:1.5px;fill:#ffffff;fill-opacity:1;stroke:none;stroke-opacity:1"
         id="path822" />
      <path
         d="m -113.62891,537.19069 h 14.792973 q 5.003906,0 7.628906,0.76562 3.527344,1.03906 6.042969,3.69141 2.515625,2.65234 3.828125,6.50781 1.3125,3.82813 1.3125,9.46094 0,4.94922 -1.230469,8.53125 -1.503906,4.375 -4.292969,7.08203 -2.105469,2.05078 -5.6875,3.19922 -2.679687,0.84765 -7.164062,0.84765 h -15.230473 z m 8.09375,6.78125 v 26.55078 h 6.042973 q 3.390625,0 4.894531,-0.38281 1.96875,-0.49219 3.253906,-1.66797 1.3125,-1.17578 2.132813,-3.85547 0.820312,-2.70703 0.820312,-7.35547 0,-4.64844 -0.820312,-7.13672 -0.820313,-2.48828 -2.296875,-3.88281 -1.476563,-1.39453 -3.746094,-1.88672 -1.695313,-0.38281 -6.644534,-0.38281 z"
         style="font-style:normal;font-variant:normal;font-weight:bold;font-stretch:normal;font-size:56px;line-height:1.20000005;font-family:arial;-inkscape-font-specification:'arial Bold';letter-spacing:1.5px;fill:#ffffff;fill-opacity:1;stroke:none;stroke-opacity:1"
         id="path824" />
      <path
         d="m -71.632812,577.27662 v -40.08593 h 29.722656 v 6.78125 h -21.628906 v 8.88672 h 20.125 v 6.7539 h -20.125 v 10.91016 h 22.394531 v 6.7539 z"
         style="font-style:normal;font-variant:normal;font-weight:bold;font-stretch:normal;font-size:56px;line-height:1.20000005;font-family:arial;-inkscape-font-specification:'arial Bold';letter-spacing:1.5px;fill:#ffffff;fill-opacity:1;stroke:none;stroke-opacity:1"
         id="path826" />
      <path
         d="m -32.644531,577.27662 v -40.08593 h 7.875 l 16.4062497,26.76953 V 537.19069 H -0.84375 v 40.08593 H -8.9648438 L -25.125,551.136 v 26.14062 z"
         style="font-style:normal;font-variant:normal;font-weight:bold;font-stretch:normal;font-size:56px;line-height:1.20000005;font-family:arial;-inkscape-font-specification:'arial Bold';letter-spacing:1.5px;fill:#ffffff;fill-opacity:1;stroke:none;stroke-opacity:1"
         id="path828" />
      <path
         d="M 18.265625,577.27662 V 543.97194 H 6.3710937 v -6.78125 H 38.226562 v 6.78125 H 26.359375 v 33.30468 z"
         style="font-style:normal;font-variant:normal;font-weight:bold;font-stretch:normal;font-size:56px;line-height:1.20000005;font-family:arial;-inkscape-font-specification:'arial Bold';letter-spacing:1.5px;fill:#ffffff;fill-opacity:1;stroke:none;stroke-opacity:1"
         id="path830" />
      <path
         d="m -194.0625,644.47664 h -8.80469 l -3.5,-9.10547 h -16.02343 l -3.3086,9.10547 h -8.58594 l 15.61329,-40.08594 h 8.55859 z m -14.90234,-15.85938 -5.52344,-14.875 -5.41406,14.875 z"
         style="font-style:normal;font-variant:normal;font-weight:bold;font-stretch:normal;font-size:56px;line-height:1.20000005;font-family:arial;-inkscape-font-specification:'arial Bold';letter-spacing:1.5px;fill:#ffffff;fill-opacity:1;stroke:none;stroke-opacity:1"
         id="path834" />
      <path
         d="m -162.59375,629.73835 7.84766,2.48829 q -1.80469,6.5625 -6.01563,9.76171 -4.18359,3.17188 -10.63672,3.17188 -7.98437,0 -13.125,-5.44141 -5.14062,-5.46875 -5.14062,-14.92968 0,-10.00782 5.16797,-15.53125 5.16797,-5.55079 13.58984,-5.55079 7.35547,0 11.94922,4.34766 2.73437,2.57031 4.10156,7.38281 l -8.01172,1.91407 q -0.71093,-3.11719 -2.98047,-4.92188 -2.24218,-1.80469 -5.46875,-1.80469 -4.45703,0 -7.24609,3.19922 -2.76172,3.19922 -2.76172,10.36328 0,7.60157 2.73438,10.82813 2.73437,3.22656 7.10937,3.22656 3.22656,0 5.55078,-2.05078 2.32422,-2.05078 3.33594,-6.45313 z"
         style="font-style:normal;font-variant:normal;font-weight:bold;font-stretch:normal;font-size:56px;line-height:1.20000005;font-family:arial;-inkscape-font-specification:'arial Bold';letter-spacing:1.5px;fill:#ffffff;fill-opacity:1;stroke:none;stroke-opacity:1"
         id="path836" />
      <path
         d="m -137.25,644.47664 v -33.30469 h -11.89453 v -6.78125 h 31.85547 v 6.78125 h -11.86719 v 33.30469 z"
         style="font-style:normal;font-variant:normal;font-weight:bold;font-stretch:normal;font-size:56px;line-height:1.20000005;font-family:arial;-inkscape-font-specification:'arial Bold';letter-spacing:1.5px;fill:#ffffff;fill-opacity:1;stroke:none;stroke-opacity:1"
         id="path838" />
      <path
         d="M -110.78516,644.47664 V 604.3907 h 8.09375 v 40.08594 z"
         style="font-style:normal;font-variant:normal;font-weight:bold;font-stretch:normal;font-size:56px;line-height:1.20000005;font-family:arial;-inkscape-font-specification:'arial Bold';letter-spacing:1.5px;fill:#ffffff;fill-opacity:1;stroke:none;stroke-opacity:1"
         id="path840" />
      <path
         d="M -83.28125,644.47664 -97.609375,604.3907 h 8.777344 l 10.144531,29.66797 9.816406,-29.66797 h 8.585938 l -14.355469,40.08594 z"
         style="font-style:normal;font-variant:normal;font-weight:bold;font-stretch:normal;font-size:56px;line-height:1.20000005;font-family:arial;-inkscape-font-specification:'arial Bold';letter-spacing:1.5px;fill:#ffffff;fill-opacity:1;stroke:none;stroke-opacity:1"
         id="path842" />
      <path
         d="M -54.847656,644.47664 V 604.3907 h 8.09375 v 40.08594 z"
         style="font-style:normal;font-variant:normal;font-weight:bold;font-stretch:normal;font-size:56px;line-height:1.20000005;font-family:arial;-inkscape-font-specification:'arial Bold';letter-spacing:1.5px;fill:#ffffff;fill-opacity:1;stroke:none;stroke-opacity:1"
         id="path844" />
      <path
         d="m -28.546875,644.47664 v -33.30469 h -11.894531 v -6.78125 h 31.8554685 v 6.78125 H -20.453125 v 33.30469 z"
         style="font-style:normal;font-variant:normal;font-weight:bold;font-stretch:normal;font-size:56px;line-height:1.20000005;font-family:arial;-inkscape-font-specification:'arial Bold';letter-spacing:1.5px;fill:#ffffff;fill-opacity:1;stroke:none;stroke-opacity:1"
         id="path846" />
      <path
         d="m 8.6914063,644.47664 v -16.8711 L -5.9921875,604.3907 h 9.4882813 l 9.4335942,15.85937 9.242187,-15.85937 h 9.324219 l -14.738282,23.26953 v 16.81641 z"
         style="font-style:normal;font-variant:normal;font-weight:bold;font-stretch:normal;font-size:56px;line-height:1.20000005;font-family:arial;-inkscape-font-specification:'arial Bold';letter-spacing:1.5px;fill:#ffffff;fill-opacity:1;stroke:none;stroke-opacity:1"
         id="path848" />
      <path
         d="m 78.765625,629.73835 7.847656,2.48829 q -1.804687,6.5625 -6.015625,9.76171 -4.183594,3.17188 -10.636719,3.17188 -7.984375,0 -13.125,-5.44141 -5.140625,-5.46875 -5.140625,-14.92968 0,-10.00782 5.167969,-15.53125 5.167969,-5.55079 13.589844,-5.55079 7.355469,0 11.949219,4.34766 2.734375,2.57031 4.101562,7.38281 l -8.011719,1.91407 q -0.710937,-3.11719 -2.980468,-4.92188 -2.242188,-1.80469 -5.46875,-1.80469 -4.457032,0 -7.246094,3.19922 -2.761719,3.19922 -2.761719,10.36328 0,7.60157 2.734375,10.82813 2.734375,3.22656 7.109375,3.22656 3.226563,0 5.550781,-2.05078 2.324219,-2.05078 3.335938,-6.45313 z"
         style="font-style:normal;font-variant:normal;font-weight:bold;font-stretch:normal;font-size:56px;line-height:1.20000005;font-family:arial;-inkscape-font-specification:'arial Bold';letter-spacing:1.5px;fill:#ffffff;fill-opacity:1;stroke:none;stroke-opacity:1"
         id="path850" />
      <path
         d="m 93.445312,624.67976 q 0,-6.125 1.832032,-10.28125 1.367187,-3.0625 3.71875,-5.49609 2.378906,-2.4336 5.195316,-3.60938 3.74609,-1.58594 8.64062,-1.58594 8.85938,0 14.16406,5.4961 5.33203,5.49609 5.33203,15.28515 0,9.70704 -5.27734,15.20313 -5.27734,5.46875 -14.10937,5.46875 -8.94141,0 -14.218754,-5.44141 -5.277344,-5.46875 -5.277344,-15.03906 z m 8.339848,-0.27344 q 0,6.8086 3.14453,10.33594 3.14453,3.5 7.98437,3.5 4.83985,0 7.92969,-3.47266 3.11719,-3.5 3.11719,-10.47265 0,-6.89063 -3.03516,-10.28125 -3.00781,-3.39063 -8.01172,-3.39063 -5.0039,0 -8.0664,3.44532 -3.0625,3.41796 -3.0625,10.33593 z"
         style="font-style:normal;font-variant:normal;font-weight:bold;font-stretch:normal;font-size:56px;line-height:1.20000005;font-family:arial;-inkscape-font-specification:'arial Bold';letter-spacing:1.5px;fill:#ffffff;fill-opacity:1;stroke:none;stroke-opacity:1"
         id="path852" />
      <path
         d="m 140.0625,604.3907 h 8.09375 v 21.71094 q 0,5.16796 0.30078,6.69921 0.51953,2.46094 2.46094,3.96485 1.96875,1.47656 5.35937,1.47656 3.44532,0 5.19532,-1.39453 1.75,-1.42188 2.10546,-3.47266 0.35547,-2.05078 0.35547,-6.80859 V 604.3907 h 8.09375 v 21.05469 q 0,7.21875 -0.65625,10.19921 -0.65625,2.98047 -2.43359,5.03125 -1.75,2.05079 -4.70313,3.28125 -2.95312,1.20313 -7.71093,1.20313 -5.74219,0 -8.72266,-1.3125 -2.95312,-1.33984 -4.67578,-3.44531 -1.72266,-2.13282 -2.26953,-4.45703 -0.79297,-3.44532 -0.79297,-10.17188 z"
         style="font-style:normal;font-variant:normal;font-weight:bold;font-stretch:normal;font-size:56px;line-height:1.20000005;font-family:arial;-inkscape-font-specification:'arial Bold';letter-spacing:1.5px;fill:#ffffff;fill-opacity:1;stroke:none;stroke-opacity:1"
         id="path854" />
      <path
         d="M 182.16797,644.47664 V 604.3907 h 7.875 l 16.40625,26.76953 V 604.3907 h 7.51953 v 40.08594 h -8.12109 L 189.6875,618.33601 v 26.14063 z"
         style="font-style:normal;font-variant:normal;font-weight:bold;font-stretch:normal;font-size:56px;line-height:1.20000005;font-family:arial;-inkscape-font-specification:'arial Bold';letter-spacing:1.5px;fill:#ffffff;fill-opacity:1;stroke:none;stroke-opacity:1"
         id="path856" />
      <path
         d="m 249.70312,629.73835 7.84766,2.48829 q -1.80469,6.5625 -6.01562,9.76171 -4.1836,3.17188 -10.63672,3.17188 -7.98438,0 -13.125,-5.44141 -5.14063,-5.46875 -5.14063,-14.92968 0,-10.00782 5.16797,-15.53125 5.16797,-5.55079 13.58984,-5.55079 7.35547,0 11.94922,4.34766 2.73438,2.57031 4.10157,7.38281 l -8.01172,1.91407 q -0.71094,-3.11719 -2.98047,-4.92188 -2.24219,-1.80469 -5.46875,-1.80469 -4.45703,0 -7.2461,3.19922 -2.76171,3.19922 -2.76171,10.36328 0,7.60157 2.73437,10.82813 2.73438,3.22656 7.10938,3.22656 3.22656,0 5.55078,-2.05078 2.32422,-2.05078 3.33593,-6.45313 z"
         style="font-style:normal;font-variant:normal;font-weight:bold;font-stretch:normal;font-size:56px;line-height:1.20000005;font-family:arial;-inkscape-font-specification:'arial Bold';letter-spacing:1.5px;fill:#ffffff;fill-opacity:1;stroke:none;stroke-opacity:1"
         id="path858" />
      <path
         d="M 265.77734,644.47664 V 604.3907 h 8.09375 v 40.08594 z"
         style="font-style:normal;font-variant:normal;font-weight:bold;font-stretch:normal;font-size:56px;line-height:1.20000005;font-family:arial;-inkscape-font-specification:'arial Bold';letter-spacing:1.5px;fill:#ffffff;fill-opacity:1;stroke:none;stroke-opacity:1"
         id="path860" />
      <path
         d="m 283.27344,644.47664 v -39.75782 h 8.09375 v 33.00391 h 20.125 v 6.75391 z"
         style="font-style:normal;font-variant:normal;font-weight:bold;font-stretch:normal;font-size:56px;line-height:1.20000005;font-family:arial;-inkscape-font-specification:'arial Bold';letter-spacing:1.5px;fill:#ffffff;fill-opacity:1;stroke:none;stroke-opacity:1"
         id="path862" />
    </g>
  </g>
</svg>
