<?xml version="1.0" encoding="UTF-8"?>
<svg xmlns="http://www.w3.org/2000/svg" viewBox="0 0 3061 3061">
  <defs>
    <style>
      .cls-1 {
        fill: #b0aaff;
      }

      .cls-2 {
        isolation: isolate;
      }

      .cls-3 {
        fill: #2d337c;
      }
    </style>
  </defs>
  <g id="Shape_9" data-name="Shape 9" class="cls-2">
    <g id="Shape_9-2" data-name="Shape 9">
      <path class="cls-3" d="m1172.53,2181.59c-10.78-183.7-114.6-290.71-218.31-506.8-103.71-216.09-15.18-506.82-13.17-620.66-13.47,73.47-214.25,421.45-209.7,600.49,4.55,179.04,97.06,351.89,214.09,471.03,161.7,164.61,183.23,347.25,183.23,347.25,0,0,54.64-107.6,43.86-291.3Z"/>
    </g>
  </g>
  <g id="Shape_10" data-name="Shape 10" class="cls-2">
    <g id="Shape_10-2" data-name="Shape 10">
      <path class="cls-1" d="m733.46,1964.86c-144.73-224.22-122.87-362.17-60.07-558.12-224.62,226.98-190.02,527.09-102.21,671.69,86.2,141.95,215.96,271.49,222.21,394.34,0,0,84.8-283.69-59.93-507.92Z"/>
    </g>
  </g>
  <g id="_23" data-name="‘23" class="cls-2">
    <g id="_23-2" data-name="‘23">
      <path class="cls-1" d="m2544.24,1193.03c-8.91-30.23-22.11-56.34-39.63-78.3-17.5-21.96-33.25-42.74-59.03-55.49-25.78-12.73-36.41-15.65-69.52-15.65-43.93,0-80.53,10.83-109.81,32.47-29.27,21.65-43.54,56.34-56.28,104.08h-2.86c-10.82-33.73-34.43-67.69-57.35-88.38-22.92-20.68-75.94-37.77-114.13-37.77-29.27,0-55.53,5.89-78.78,17.67-23.23,11.79-45.05,41.5-60.97,62.18-15.91,20.69-28.17,45.04-36.76,73.05-8.59,28.02-10.65,248.86-10.65,280.68,0,38.2,5.42,72.26,16.23,102.17,10.83,29.93,25.95,55.38,45.36,76.39,19.43,21.01,34.82,35.85,59.35,51.24,17.75,11.15,38.95,13.7,70.77,13.7v-88.81c-21.01,0-18.94-.99-37.08-8-18.14-7-28.43-19.53-41.48-32.58-13.04-13.04-23.23-28.8-30.56-47.27-7.31-18.46-10.98-39.78-10.98-63.98,0-19.72,2.55-235.86,7.64-253.04,5.1-17.19,12.58-32.3,22.44-45.36,9.88-13.04,21.96-23.23,36.29-30.56,14.32-7.31,30.41-10.98,48.22-10.98,35.66,0,85.39,19.99,105.45,45.77,1.33,1.71,2.61,3.46,3.85,5.32,10.47,22.66,20.27,86.87,25.79,154.05,1.61,37.97,2.69,85.71,3.25,146.26v42.02h70.66v-42.97c-4.49-159.83,8.42-288.8,29.74-318.4,21.34-29.6,53-44.4,95.01-44.4,46.48,0,63.56,4.89,92.89,51.4,37.56,59.58,23.11,249.03,23.11,294.22,0,55.38-22.52,104.99-42.49,130.34-21.75,27.63-28.33,23.2-70.76,32.33v89.76c38.2-.63,26.86-.09,53.57-5.12,31.63-5.93,53.64-33.42,74-58.25,20.38-24.19,35.66-52.67,45.84-85.46,10.18-32.78,13.03-259.2,13.03-297.39,0-34.38-4.46-66.68-13.37-96.92Z"/>
    </g>
  </g>
  <g id="Shape_14" data-name="Shape 14" class="cls-2">
    <g id="Shape_14-2" data-name="Shape 14">
      <path class="cls-1" d="m1748,1522l-98-1s-1.82,84.84-54,119c-49.62,32.49-128,27-168,19-40-8-121-29-162-110-41-81-49-135-39-207,10-72,46-119,64-145,18-26,97-79,141-84,44-5,102-6,165,31,38,22,50,109,46,138,10,2,103,0,103,0,0,0-5.5-113.51-64-173-44.17-44.93-95-81-162-81-67,0-111,3-151,19-40,16-114,59-132,88-18,29-74,105-85,162-11,57-12,143,2,195,14,52,35,98,58,130,23,32,55.98,64.03,78,77,21.99,12.96,49,27.01,49,27,0,0,63.2,18.98,101,23,47,5,110.23,1.57,160-19,52-21.5,105.54-65.61,119-90,16-29,30-106,29-118Z"/>
    </g>
  </g>
  <g id="MOHALI">
    <g>
      <path class="cls-3" d="m1625.58,2011.54c-1.48-27.76-3.25-61.12-2.95-85.92h-.89c-6.79,23.33-15.06,48.13-25.1,75.59l-35.14,96.55h-19.49l-32.19-94.78c-9.45-28.05-17.42-53.74-23.03-77.36h-.59c-.59,24.8-2.07,58.17-3.84,87.99l-5.31,85.33h-24.51l13.88-199.01h32.78l33.96,96.26c8.27,24.51,15.06,46.36,20.08,67.03h.89c5.02-20.08,12.11-41.93,20.96-67.03l35.43-96.26h32.78l12.4,199.01h-25.1l-5.02-87.4Z"/>
      <path class="cls-3" d="m1868.29,1997.37c0,68.5-41.63,104.82-92.42,104.82s-89.47-40.75-89.47-100.98c0-63.19,39.27-104.53,92.42-104.53s89.47,41.63,89.47,100.69Zm-154.43,3.25c0,42.52,23.03,80.61,63.48,80.61s63.78-37.5,63.78-82.68c0-39.57-20.67-80.91-63.48-80.91s-63.78,39.27-63.78,82.97Z"/>
      <path class="cls-3" d="m1930.3,1899.93v83.27h96.26v-83.27h25.98v199.01h-25.98v-93.31h-96.26v93.31h-25.69v-199.01h25.69Z"/>
      <path class="cls-3" d="m2132.26,2036.34l-20.67,62.6h-26.57l67.62-199.01h31l67.91,199.01h-27.46l-21.26-62.6h-70.57Zm65.26-20.08l-19.49-57.28c-4.43-12.99-7.38-24.8-10.33-36.32h-.59c-2.95,11.81-6.2,23.92-10.04,36.02l-19.49,57.58h59.94Z"/>
      <path class="cls-3" d="m2283.74,1899.93h25.69v177.46h85.04v21.55h-110.73v-199.01Z"/>
      <path class="cls-3" d="m2451.74,1899.93v199.01h-25.69v-199.01h25.69Z"/>
    </g>
  </g>
  <g id="_2023" data-name="2023">
    <g>
      <path class="cls-3" d="m1817.46,2435.75v-17.52l22.38-21.74c53.85-51.25,78.18-78.5,78.51-110.3,0-21.41-10.38-41.2-41.85-41.2-19.14,0-35.04,9.73-44.77,17.84l-9.08-20.11c14.6-12.33,35.36-21.41,59.69-21.41,45.42,0,64.56,31.14,64.56,61.31,0,38.93-28.22,70.4-72.67,113.22l-16.87,15.57v.65h94.72v23.68h-134.63Z"/>
      <path class="cls-3" d="m2127.25,2328.05c0,71.69-26.6,111.27-73.31,111.27-41.2,0-69.1-38.6-69.75-108.35,0-70.72,30.49-109.65,73.31-109.65s69.75,39.58,69.75,106.73Zm-114.51,3.24c0,54.82,16.87,85.97,42.82,85.97,29.2,0,43.15-34.06,43.15-87.91s-13.3-85.97-42.82-85.97c-24.98,0-43.15,30.49-43.15,87.91Z"/>
      <path class="cls-3" d="m2156.76,2435.75v-17.52l22.38-21.74c53.85-51.25,78.18-78.5,78.51-110.3,0-21.41-10.38-41.2-41.85-41.2-19.14,0-35.04,9.73-44.77,17.84l-9.08-20.11c14.6-12.33,35.36-21.41,59.69-21.41,45.42,0,64.56,31.14,64.56,61.31,0,38.93-28.22,70.4-72.67,113.22l-16.87,15.57v.65h94.73v23.68h-134.63Z"/>
      <path class="cls-3" d="m2333.23,2402.99c8.11,5.19,26.93,13.3,46.71,13.3,36.66,0,48.01-23.36,47.69-40.88-.32-29.52-26.93-42.17-54.5-42.17h-15.9v-21.41h15.9c20.76,0,47.04-10.71,47.04-35.68,0-16.87-10.71-31.79-36.98-31.79-16.87,0-33.09,7.46-42.17,13.95l-7.46-20.76c11.03-8.11,32.44-16.22,55.15-16.22,41.52,0,60.34,24.65,60.34,50.28,0,21.74-12.98,40.23-38.93,49.63v.65c25.95,5.19,47.04,24.65,47.04,54.17,0,33.74-26.28,63.26-76.88,63.26-23.68,0-44.44-7.46-54.82-14.27l7.79-22.06Z"/>
    </g>
  </g>
  <g id="Shape_13" data-name="Shape 13" class="cls-2">
    <g id="Shape_13-2" data-name="Shape 13">
      <path class="cls-3" d="m1008.32,805.22c-52.24-92.02,4.72-217.64,4.72-217.64,0,0-79.06,86.68-101.35,129.88-22.29,43.2-36.92,113.78,8.23,169.7,45.15,55.93,41.47,110.11,41.47,110.11,56.63-44.99,99.17-100.04,46.93-192.06Z"/>
    </g>
  </g>
  <g id="Shape_13-3" data-name="Shape 13" class="cls-2">
    <g id="Shape_13-4" data-name="Shape 13">
      <path class="cls-1" d="m714.11,1182.72c-49.72-75.44-8.31-185.68-8.31-185.68,0,0-62.44,78.33-78.99,116.4-16.54,38.07-25,99.02,16.63,144.11,41.63,45.09,41.57,91.46,41.57,91.46,45.7-41.54,78.82-90.85,29.1-166.28Z"/>
    </g>
  </g>
</svg>